<svg width="81" height="80" viewBox="0 0 81 80" fill="none" xmlns="http://www.w3.org/2000/svg">
<path d="M58.8466 38.1672H42.5122V21.8328C42.5122 20.8161 41.6961 20 40.6794 20C39.6627 20 38.8466 20.8161 38.8466 21.8328V38.1672H22.4988C21.4821 38.1672 20.666 38.9833 20.666 40C20.666 41.0167 21.4821 41.8328 22.4988 41.8328H38.8332V58.1672C38.8332 59.1839 39.6493 60 40.666 60C41.6827 60 42.4988 59.1839 42.4988 58.1672V41.8328H58.8332C59.85 41.8328 60.666 41.0167 60.666 40C60.666 38.9833 59.85 38.1672 58.8332 38.1672H58.8466Z" fill="#292929"/>
</svg>
