<svg width="24" height="24" viewBox="0 0 24 24" fill="none" xmlns="http://www.w3.org/2000/svg">
<rect x="0.5" y="0.5" width="23" height="23" rx="11.5" fill="white"/>
<rect x="0.5" y="0.5" width="23" height="23" rx="11.5" stroke="#E5E7EB"/>
<g clip-path="url(#clip0_9577_111255)">
<path d="M8.1027 13.4609L7.61538 15.2801L5.83423 15.3178C5.30193 14.3305 5 13.2009 5 12.0005C5 10.8397 5.2823 9.74509 5.78269 8.78125H5.78307L7.36879 9.07197L8.06343 10.6482C7.91804 11.072 7.8388 11.527 7.8388 12.0005C7.83886 12.5143 7.93193 13.0067 8.1027 13.4609Z" fill="#FBBB00"/>
<path d="M18.8781 10.6924C18.9585 11.1158 19.0004 11.5531 19.0004 12.0001C19.0004 12.5012 18.9477 12.9901 18.8473 13.4616C18.5066 15.0662 17.6162 16.4674 16.3827 17.4589L16.3824 17.4585L14.3851 17.3566L14.1024 15.592C14.9208 15.112 15.5605 14.3608 15.8974 13.4616H12.1543V10.6924H15.952H18.8781Z" fill="#518EF8"/>
<path d="M16.3817 17.458L16.3821 17.4584C15.1825 18.4226 13.6586 18.9996 11.9998 18.9996C9.33398 18.9996 7.0163 17.5096 5.83398 15.3169L8.10245 13.46C8.69359 15.0376 10.2155 16.1607 11.9998 16.1607C12.7667 16.1607 13.4851 15.9534 14.1017 15.5915L16.3817 17.458Z" fill="#28B446"/>
<path d="M16.4686 6.61153L14.2009 8.46806C13.5628 8.06923 12.8086 7.83883 12.0005 7.83883C10.1759 7.83883 8.6255 9.01343 8.06397 10.6477L5.78359 8.78077H5.7832C6.94821 6.53461 9.29513 5 12.0005 5C13.699 5 15.2563 5.60501 16.4686 6.61153Z" fill="#F14336"/>
</g>
<defs>
<clipPath id="clip0_9577_111255">
<rect width="14" height="14" fill="white" transform="translate(5 5)"/>
</clipPath>
</defs>
</svg>
