<svg width="22" height="22" viewBox="0 0 22 22" fill="none" xmlns="http://www.w3.org/2000/svg">
<path d="M21.0006 11.1171C21.0006 5.5296 16.471 1 10.8835 1C6.34846 1 2.51036 3.98385 1.22531 8.0954C1.143 8.35878 1.10184 8.49047 1.10572 8.65514C1.10888 8.78904 1.14958 8.95446 1.20891 9.07454C1.28188 9.22222 1.39454 9.33488 1.61986 9.56018L12.4409 20.3807C12.6662 20.606 12.7788 20.7187 12.9265 20.7916C13.0466 20.8509 13.212 20.8916 13.3459 20.8948C13.5106 20.8987 13.6423 20.8575 13.9057 20.7752C18.017 19.49 21.0006 15.652 21.0006 11.1171Z" stroke="#292929" stroke-width="1.5" stroke-linecap="round" stroke-linejoin="round"/>
<path d="M2.4468 8.7341C2.6873 8.71699 2.93013 8.70829 3.17499 8.70829C8.76253 8.70829 13.2921 13.2379 13.2921 18.8254C13.2921 19.0703 13.2834 19.3131 13.2663 19.5536C13.2364 19.9738 13.2215 20.1839 13.099 20.3137C12.9995 20.4191 12.8298 20.4824 12.6856 20.468C12.508 20.4502 12.3466 20.2887 12.0236 19.9658L2.03464 9.97679C1.71171 9.65385 1.55024 9.49239 1.53246 9.31484C1.51801 9.17064 1.58136 9.00088 1.68675 8.9014C1.81651 8.77892 2.02661 8.76398 2.4468 8.7341Z" stroke="#292929" stroke-width="1.5" stroke-linecap="round" stroke-linejoin="round"/>
</svg>
