<svg width="25" height="24" viewBox="0 0 25 24" fill="none" xmlns="http://www.w3.org/2000/svg">
<g id="call/Solid">
<path id="Vector" d="M9.33341 5.36292L8.90837 4.4066C8.63047 3.78132 8.49151 3.46866 8.28371 3.2294C8.02327 2.92955 7.68379 2.70894 7.30401 2.59273C7.00097 2.5 6.65883 2.5 5.97457 2.5C4.97358 2.5 4.47309 2.5 4.05294 2.69242C3.55804 2.91908 3.11108 3.41124 2.933 3.92564C2.78182 4.36231 2.82513 4.81107 2.91173 5.70858C3.83358 15.2619 9.07116 20.4995 18.6244 21.4213C19.522 21.508 19.9708 21.5512 20.4074 21.4001C20.9218 21.222 21.414 20.775 21.6407 20.2801C21.833 19.8599 21.833 19.3595 21.833 18.3585C21.833 17.6742 21.833 17.3321 21.7403 17.029C21.6241 16.6492 21.4035 16.3098 21.1036 16.0494C20.8644 15.8415 20.5518 15.7026 19.9265 15.4247L18.9701 14.9996C18.293 14.6987 17.9544 14.5482 17.6104 14.5155C17.281 14.4842 16.949 14.5304 16.6408 14.6504C16.3188 14.7758 16.0342 15.013 15.4648 15.4874C14.8982 15.9596 14.6149 16.1958 14.2687 16.3222C13.9617 16.4343 13.556 16.4759 13.2327 16.4282C12.868 16.3745 12.5889 16.2253 12.0304 15.9268C10.2929 14.9983 9.33475 14.0402 8.40621 12.3027C8.10778 11.7443 7.95856 11.465 7.90482 11.1004C7.85719 10.7771 7.89871 10.3713 8.01083 10.0644C8.13731 9.7182 8.37343 9.43487 8.84566 8.86818C9.32006 8.2989 9.55727 8.01426 9.68268 7.6922C9.8027 7.384 9.8489 7.05199 9.81758 6.72274C9.78485 6.37867 9.63437 6.04009 9.33341 5.36292Z" fill="#292929" stroke="#292929" stroke-linecap="round"/>
</g>
</svg>
