<svg width="24" height="24" viewBox="0 0 24 24" fill="none" xmlns="http://www.w3.org/2000/svg">
<path d="M9.0004 5.36292L8.57537 4.4066C8.29746 3.78132 8.15851 3.46866 7.9507 3.2294C7.69026 2.92955 7.35078 2.70894 6.971 2.59273C6.66796 2.5 6.32582 2.5 5.64156 2.5C4.64057 2.5 4.14008 2.5 3.71994 2.69242C3.22503 2.91908 2.77807 3.41124 2.59999 3.92564C2.44881 4.36231 2.49212 4.81107 2.57872 5.70858C3.50057 15.2619 8.73816 20.4995 18.2914 21.4213C19.189 21.508 19.6378 21.5512 20.0744 21.4001C20.5888 21.222 21.0809 20.775 21.3077 20.2801C21.5 19.8599 21.5 19.3595 21.5 18.3585C21.5 17.6742 21.5 17.3321 21.4073 17.029C21.2911 16.6492 21.0705 16.3098 20.7706 16.0494C20.5314 15.8415 20.2188 15.7026 19.5935 15.4247L18.6371 14.9996C17.96 14.6987 17.6213 14.5482 17.2773 14.5155C16.948 14.4842 16.616 14.5304 16.3078 14.6504C15.9858 14.7758 15.7012 15.013 15.1318 15.4874C14.5652 15.9596 14.2819 16.1958 13.9357 16.3222C13.6287 16.4343 13.2229 16.4759 12.8997 16.4282C12.535 16.3745 12.2558 16.2253 11.6973 15.9268C9.9599 14.9983 9.00174 14.0402 8.07321 12.3027C7.77477 11.7443 7.62555 11.465 7.57182 11.1004C7.52418 10.7771 7.5657 10.3713 7.67783 10.0644C7.8043 9.7182 8.04042 9.43487 8.51266 8.86818C8.98706 8.2989 9.22426 8.01426 9.34967 7.6922C9.46969 7.384 9.51589 7.05199 9.48457 6.72274C9.45184 6.37867 9.30136 6.04009 9.0004 5.36292Z" fill="#0056FD" stroke="#0056FD" stroke-linecap="round"/>
</svg>
